<?xml version="1.0" encoding="utf-8"?>
<svg xmlns="http://www.w3.org/2000/svg" viewBox="0 0 500 500" role="img" aria-labelledby="logoTitle logoDesc">
  <title id="logoTitle">Second Chance Animal Rescue &amp; Sanctuary</title>
  <desc id="logoDesc">Circular badge logo with dog, turtle, cat and cow silhouettes and surrounding text.</desc>

  <defs>
    <!-- paths used by text layout -->
    <path id="path-1" d="M 417.818 250.684 A 169.995 169.995 0 0 1 247.823 420.679 A 169.995 169.995 0 0 1 77.828 250.684 A 169.995 169.995 0 0 1 247.823 80.689 A 169.995 169.995 0 0 1 417.818 250.684 Z" fill="none" stroke="none"/>
    <path id="path-2" d="M 442.558 248.364 C 442.558 141.24 355.718 54.402 248.596 54.402 C 141.474 54.402 54.634 141.242 54.634 248.364 C 54.634 355.486 141.474 442.326 248.596 442.326 C 355.718 442.326 442.558 355.486 442.558 248.364 Z" fill="none" stroke="none"/>
  </defs>

  <!-- outer rings / dots -->
  <g>
    <ellipse cx="248.729" cy="245.599" rx="215.878" ry="215.878" style="opacity:0.5; stroke:rgb(79,55,38); stroke-width:5; fill:none;" />
    <ellipse cx="248.339" cy="250.684" rx="159.171" ry="159.171" style="stroke-width:2; fill:none; stroke:rgb(167,155,146);" />
    <ellipse cx="65.446" cy="245.653" rx="5.75" ry="5.75" style="fill:rgb(167,155,146); stroke:rgb(167,155,146);" />
    <ellipse cx="432.367" cy="245.438" rx="5.75" ry="5.75" style="fill:rgb(147,137,130); stroke:rgb(147,137,130);" />
  </g>

  <!-- text on arcs -->
  <g style="font-family: Georgia, 'Times New Roman', Times, serif; text-transform:uppercase;">
    <text style="fill:rgb(51,51,51); font-size:35px; font-weight:700; letter-spacing:6.7px;">
      <textPath href="#path-1" startOffset="55%" textAnchor="middle">SECOND CHANCE</textPath>
    </text>

    <text style="fill:rgb(51,51,51); font-size:30px; font-weight:700; letter-spacing:2px;">
      <textPath href="#path-2" startOffset="52%" textAnchor="middle">ANIMAL RESCUE &amp; SANCTUARY</textPath>
    </text>
  </g>

  <!-- simplified/cleaned animals and ground (kept original fills/strokes) -->
  <g>
    <!-- Grass (kept as path) -->
    <path d="M 341.916 379.432 C 341.664 379.432 340.659 380.441 340.434 380.667 C 339.362 381.738 337.391 382.475 336.358 383.508 C 334.379 385.486 330.523 385.761 328.454 387.83 C 327.092 389.192 324.121 389.446 322.649 390.918 C 321.281 392.286 318.453 394.004 316.721 394.87 C 314.342 396.059 311.736 396.312 309.435 397.463 C 306.302 399.03 302.545 400.353 299.184 402.033 C 297.819 402.715 295.88 402.558 294.491 403.021 C 294.196 403.119 293.064 402.965 292.885 403.144 C 292.153 403.877 290.004 403.906 289.057 404.379 C 286.791 405.512 284.435 405.394 282.264 406.479 C 281.408 406.907 280.027 406.424 279.177 406.849 C 277.249 407.813 274.423 407.003 272.508 407.961 C 270.985 408.722 268.895 408.825 267.073 408.825 C 266.688 408.825 264.767 408.539 264.48 408.825 C 263.984 409.322 262.217 408.969 261.516 409.319 C 258.037 411.059 251.605 409.948 248.067 409.948 C 236.383 409.948 225.535 408.564 214.867 405.897 C 211.005 404.931 207.794 404.78 204.626 403.196 C 204.102 402.934 202.796 402.829 202.375 402.408 C 201.503 401.536 198.489 401.984 197.31 401.395 C 196.373 400.926 194.959 400.394 194.272 399.707 C 193.539 398.974 191.453 399.254 190.558 398.807 C 188.051 397.553 184.254 396.78 182.567 395.093 C 182.243 394.768 181.171 394.935 180.879 394.642 C 180.318 394.081 178.581 393.831 177.728 393.404 C 175.911 392.496 173.038 390.966 171.65 389.578 C 170.983 388.91 169.759 389.037 169.174 388.453 C 167.036 386.315 163.994 385.861 162.084 383.951 C 161.674 383.541 160.511 383.39 160.171 383.05 C 159.21 382.09 157.585 381.251 156.457 380.687 C 154.738 379.828 153.192 377.985 151.955 376.748 C 149.994 374.787 147.156 373.3 145.315 371.459 C 144.02 370.164 141.994 369.037 140.813 367.857 C 140.57 367.614 139.751 367.14 139.751 366.811 C 137.782 364.843 135.859 363.525 133.997 361.663 C 132.731 360.397 132.353 358.707 130.968 357.322 C 128.821 355.175 126.283 352.737 123.902 350.357 C 123.144 349.6 122.825 348.17 122.085 347.429 C 121.113 346.458 120.576 344.709 119.561 343.694 C 117.59 341.723 116.102 338.923 114.009 336.829 C 112.624 335.445 112.408 332.099 111.081 330.773 C 109.138 328.83 108.07 325.44 106.236 323.605 C 105.521 322.89 105.459 320.739 105.024 319.87 C 104.405 318.632 103.766 318.126 103.766 316.799 C 104.035 316.866 105.66 317.283 105.956 316.986 C 106.036 316.907 106.067 316.733 106.18 316.733 C 106.18 315.704 106.213 314.515 105.854 313.797 C 105.185 312.459 104.549 311.913 104.549 310.317 C 104.549 309.76 104.317 308.157 104.658 307.816 C 104.8 307.674 105.159 308.669 105.201 308.795 C 105.387 309.353 106.122 310.153 106.561 310.372 C 106.641 310.412 106.936 310.757 107.05 310.644 C 107.135 310.558 107.05 309.949 107.05 309.828 C 107.05 308.861 106.615 308.05 106.615 307.109 C 106.615 306.915 106.474 305.843 106.941 306.076 C 107.619 306.415 107.609 307.886 108.137 308.414 C 109.034 309.311 109.225 310.808 109.823 312.003 C 110.197 312.751 110.612 313.473 110.965 314.178 C 111.287 314.823 111.615 315.553 112.052 316.135 C 112.123 316.23 112.453 316.876 112.704 316.624 C 113.038 316.29 112.553 315.03 112.433 314.667 C 111.732 312.566 111.02 310.704 110.584 308.523 C 110.486 308.031 110.53 307.5 110.53 306.946 C 110.53 306.859 110.522 306.154 110.584 306.185 C 112.05 306.918 111.665 308.185 112.378 309.61 C 112.881 310.615 112.937 311.925 113.411 312.873 C 113.566 313.182 113.555 313.724 113.792 313.96 C 114.472 314.641 115.259 315.251 116.075 315.863 C 116.743 316.363 117.413 316.679 118.25 316.679 C 118.187 316.416 118.955 316.611 119.157 316.611 C 120.189 316.611 121.046 316.736 122.098 316.736 C 124.733 316.736 127.369 316.611 129.981 316.611 C 133.462 316.611 137.4 316.666 140.805 315.985 C 141.971 315.752 143.265 316.094 144.434 315.86 C 145.846 315.578 147.246 315.454 148.626 315.109 C 148.945 315.03 149.276 314.878 149.564 314.734 C 149.7 314.666 150.138 314.677 150.002 314.609 C 149.943 314.579 149.747 314.546 149.813 314.546 C 151.493 314.546 151.628 312.27 151.628 310.916 C 151.628 310.729 151.485 309.607 151.628 309.464 C 151.661 309.431 152.081 310.249 152.112 310.371 C 152.321 311.206 151.974 312.576 152.354 313.336 C 152.826 314.28 153.844 314.405 154.895 313.88 C 155.513 313.571 155.33 312.658 155.742 312.247 C 156.041 311.947 156.207 310.788 156.286 310.311 C 156.462 309.257 157.233 308.034 157.859 307.407 C 158.182 307.084 158.603 306.603 158.887 306.318 C 158.909 306.297 159.23 305.855 159.25 305.895 C 159.456 306.306 159.371 307.216 159.371 307.71 C 159.371 308.159 159.574 309.179 159.371 309.585 C 158.879 310.569 158.343 312.452 158.343 313.517 C 158.343 314.556 158.127 316.695 159.855 316.118 C 161.333 315.626 161.904 313.68 162.215 312.126 C 162.618 310.106 163.96 307.477 165.3 306.137 C 165.711 305.726 165.789 305.165 166.328 304.806 C 166.461 304.717 166.841 304.656 166.994 304.503 C 167.043 304.454 167.463 304.186 167.538 304.261 C 167.817 304.54 167.067 305.602 166.994 305.895 C 166.626 307.367 165.939 308.877 165.481 310.25 C 165.366 310.596 164.988 311.632 165.3 311.944 C 165.558 312.203 166.251 311.873 166.389 311.46 C 166.754 310.366 167.907 309.633 168.385 308.678 C 168.494 308.46 169.837 307.71 169.837 307.71 C 169.837 307.71 169.779 308.312 169.716 308.375 C 169.304 308.787 169.292 309.526 168.99 310.129 C 168.452 311.205 168.839 312.79 168.325 313.82 C 168.009 314.452 168.409 315.369 167.901 315.876 C 167.785 315.993 167.357 317.571 167.538 317.752 C 168.043 318.256 169.532 316.389 169.837 316.542 C 169.97 316.608 170.004 317.239 170.079 317.389 C 170.29 317.812 170.685 318.327 171.107 318.538 C 171.964 318.967 174.858 318.311 174.858 319.567 C 175.204 319.361 175.728 319.568 176.101 319.444 C 176.732 319.234 177.49 319.239 178.193 319.122 C 180.385 318.756 182.559 318.144 184.735 317.781 C 185.184 317.706 186.314 317.543 186.612 317.245 C 186.757 317.1 187.204 316.526 187.307 316.526 C 187.709 316.123 187.795 315.63 187.795 315.06 C 187.795 314.973 187.73 314.248 187.795 314.204 C 188.479 313.749 190.174 313.793 190.972 313.594 C 191.649 313.424 191.402 312.858 191.705 312.555 C 191.799 312.461 192.171 313.002 192.255 313.044 C 192.783 313.308 193.042 313.69 193.538 314.021 C 193.721 314.143 194.146 314.079 194.271 314.204 C 194.308 314.241 194.634 314.453 194.76 314.327 C 195.367 313.72 194.939 312.381 195.31 311.639 C 196.045 310.168 196.98 308.319 198.059 307.24 C 198.116 307.183 198.792 306.201 198.792 306.201 C 198.792 306.201 198.761 306.645 198.731 306.69 C 198.415 307.165 198.483 307.922 198.304 308.462 C 197.866 309.775 197.399 311.052 196.96 312.372 C 196.701 313.146 196.713 314.208 196.349 314.938 C 196.091 315.452 196.398 317.082 197.143 316.709 C 198.036 316.263 198.405 313.842 198.548 312.983 C 198.882 310.98 199.756 308.795 200.625 307.056 C 200.977 306.352 201.467 305.643 201.664 304.857 C 201.972 303.623 202.843 303.25 203.497 302.596 C 203.559 302.534 203.93 302.175 204.047 302.291 C 204.227 302.471 203.928 303.2 203.863 303.33 C 203.437 304.183 203.061 305.133 202.825 306.079 C 202.291 308.213 201.419 310.244 201.419 312.494 C 201.419 313.128 201.256 314.407 201.664 314.815 C 202.013 315.165 202.383 315.535 202.702 315.854 C 203.183 316.335 204.92 316.098 205.696 316.098 C 206.073 315.853 207.2 316.119 207.638 316.119 C 209.316 316.119 211.113 316.292 212.768 316.056 C 216.57 315.513 220.508 315.618 224.406 315.618 C 226.953 315.618 229.71 315.397 232.164 315.806 C 234.014 316.114 236.278 315.467 238.045 316.056 C 238.466 316.196 239.22 316.056 239.672 316.056 C 242.575 316.056 245.471 313.359 245.471 310.553 C 245.471 312.601 246.596 314.876 247.395 316.473 C 247.841 317.365 249.555 317.496 250.281 316.769 C 250.968 316.082 250.184 314.446 250.577 313.661 C 251.452 311.91 251.687 309.471 251.687 307.222 C 251.687 306.464 251.329 305.304 250.725 305.002 C 250.679 304.979 250.429 304.484 250.429 304.484 C 250.429 304.484 250.615 305.226 250.651 305.298 C 251.058 306.112 251.468 306.933 251.835 307.667 C 252.488 308.971 252.677 311.079 253.167 312.551 C 253.29 312.918 253.307 313.653 253.537 313.883 C 253.784 314.129 253.673 315.043 253.833 315.363 C 254.193 316.082 254.456 317.022 255.017 317.583 C 255.241 317.807 255.238 318.395 255.462 318.619 C 256.041 319.199 257.066 318.223 257.238 317.879 C 257.689 316.977 257.613 315.373 257.164 314.475 C 257.111 314.37 257 313.587 256.868 313.587 C 256.635 313.587 257.03 314.075 257.238 314.179 C 257.542 314.331 258.137 315.204 258.718 314.623 C 259.438 313.903 259.117 312.152 259.754 311.515 C 260.046 311.223 259.841 310.244 260.124 309.961 C 260.292 309.792 260.477 311.606 261.012 311.071 C 261.722 310.361 262.344 309.275 262.344 308.185 C 262.344 308.022 262.566 306.704 262.566 306.704 C 262.566 306.704 262.64 307.567 262.64 307.592 C 262.64 308.217 262.919 309.7 262.64 310.257 C 262.525 310.487 261.827 312.144 261.9 312.181 C 262.348 312.405 262.991 312.164 262.714 312.995 C 262.356 314.069 261.678 314.732 261.678 316.103 C 261.678 316.256 261.58 316.968 261.678 317.065 C 261.801 317.189 262.147 317.09 262.27 317.213 C 262.46 317.403 262.995 317.106 263.158 317.065 C 263.742 316.919 264.327 316.002 264.564 315.289 C 265.436 312.673 266.152 310.338 267.302 308.037 C 267.764 307.113 268.67 306.707 269.079 305.89 C 269.112 305.823 269.893 305.446 269.893 305.446 C 269.893 305.446 269.875 306.037 269.819 306.112 C 269.281 306.829 268.77 307.556 268.487 308.407 C 267.903 310.157 267.896 312.028 267.45 313.809 C 267.308 314.379 267.112 315.574 267.376 316.103 C 267.953 317.256 267.226 318.211 268.487 318.841 C 269.68 319.438 270.253 317.593 270.707 317.139 C 270.964 316.882 271.061 315.961 271.151 315.511 C 271.344 314.543 271.671 313.138 272.113 312.255 C 273.015 310.451 273.963 308.11 275.295 306.778 C 275.65 306.424 276.302 306.216 276.627 305.89 C 276.831 305.687 277.187 305.839 277.071 306.186 C 276.951 306.548 276.192 307.732 275.813 308.111 C 275.446 308.478 275.367 309.224 275.073 309.813 C 274.497 310.965 272.731 314.056 273.889 315.215 C 274.451 315.778 276.342 315.204 276.775 314.771 C 276.863 314.684 277.912 313.392 278.033 313.513 C 278.253 313.733 278.291 314.584 278.551 314.845 C 278.821 315.114 279.217 315.289 279.661 315.585 C 280.396 316.075 281.233 316.417 281.734 316.917 C 281.947 317.131 282.448 317.016 282.696 317.139 C 284.67 318.127 284.621 314.551 284.028 313.365 C 283.428 312.165 282.474 310.852 282.474 309.443 C 282.474 309.282 282.376 308.011 282.474 307.963 C 282.896 307.751 283.904 309.443 284.25 309.443 C 284.381 309.443 284.324 308.596 284.324 308.481 C 284.324 307.91 284.468 307.448 284.768 307.148 C 285.023 306.893 285.362 307.374 285.434 307.518 C 285.839 308.329 285.194 309.351 285.878 310.035 C 286.791 310.947 287.776 309.577 288.542 309.961 C 288.87 310.125 288.955 310.639 289.06 310.849 C 289.28 311.287 288.915 312.038 289.134 312.477 C 289.779 313.767 289.356 316.008 289.356 317.509 C 289.356 317.884 289.376 319.581 289.134 319.581 C 290.024 319.754 291.393 319.41 292.347 319.274 C 294.054 319.03 295.891 319.283 297.643 319.088 C 302.967 318.496 308.782 318.652 313.766 318.652 C 314.221 318.501 314.208 318.009 314.523 317.694 C 315.136 317.081 315.355 316.054 315.935 315.475 C 316.288 315.122 316.656 314.804 316.944 314.517 C 317.329 314.132 318.051 314.42 318.356 313.811 C 319.074 312.373 319.403 311.009 320.07 309.675 C 320.488 308.84 321.112 307.894 321.482 307.154 C 321.547 307.025 321.946 306.705 322.037 306.75 C 322.467 306.965 322.138 308.952 322.138 309.423 C 322.138 310.954 321.439 312.578 320.978 313.962 C 320.865 314.301 320.957 315.194 320.726 315.425 C 320.661 315.49 320.726 315.981 320.726 316.08 C 320.726 316.788 320.838 317.372 321.382 317.644 C 322.325 318.115 322.993 316.292 323.147 315.677 C 323.671 313.578 324.949 311.834 325.618 309.827 C 325.836 309.172 326.377 308.11 326.727 307.759 C 327.121 307.366 327.627 306.565 327.786 306.246 C 327.844 306.131 328.368 305.997 328.442 306.145 C 328.914 307.089 327.801 308.133 327.433 308.869 C 326.398 310.939 326.173 313.15 326.173 315.677 C 326.173 317.083 326.094 318.336 327.232 318.905 C 328.502 319.54 329.369 317.313 329.602 316.383 C 330.201 313.988 330.932 310.908 332.325 308.818 C 332.7 308.256 333.123 307.058 333.737 306.75 C 334.456 306.391 334.625 305.106 335.15 304.582 C 335.34 304.392 335.322 304.107 335.452 303.977 C 335.532 303.897 335.524 303.594 335.603 303.674 C 335.837 303.908 335.654 305.218 335.654 305.54 C 335.654 306.983 334.818 308.47 333.99 309.575 C 333.624 310.062 333.633 310.792 333.384 311.289 C 333.149 311.759 333.132 312.303 333.132 312.903 C 333.132 313.005 332.998 313.324 333.082 313.407 C 333.61 313.936 334.331 312.556 334.544 312.449 C 334.84 312.302 334.951 311.59 335.25 311.441 C 335.505 311.313 335.649 310.74 335.856 310.533 C 336.444 309.945 337.327 308.901 337.671 308.213 C 337.739 308.077 338.616 307.493 338.781 307.658 C 339.103 307.98 338.305 308.683 338.226 308.919 C 338.052 309.442 337.522 309.819 337.318 310.432 C 337.132 310.989 336.89 311.642 336.612 312.197 C 336.424 312.573 336.592 313.113 336.461 313.508 C 336.13 314.502 336.31 315.881 336.31 316.988 C 336.31 317.406 336.247 318.023 336.41 318.35 C 336.628 318.785 337.066 319.536 337.066 319.913 C 337.469 319.595 338.147 320.017 338.799 320.017 C 339.763 320.017 342.302 319.766 342.887 319.181 C 343.715 318.352 344.569 318.325 345.116 317.23 C 345.67 316.123 345.209 313.684 345.209 312.399 C 345.209 311.884 345.116 311.38 345.116 310.913 C 345.116 310.694 344.883 310.095 345.023 310.262 C 345.105 310.36 345.22 310.716 345.22 310.589 C 345.886 310.145 345.707 308.877 345.931 308.207 C 346.009 307.971 346.01 307.431 346.223 307.538 C 346.96 307.906 346.14 309.823 346.14 310.338 C 346.14 310.895 346.109 311.782 346.349 312.261 C 346.4 312.363 346.312 312.642 346.391 312.721 C 346.692 313.022 346.993 313.791 347.101 314.226 C 347.242 314.791 347.227 315.43 347.227 316.023 C 347.227 316.232 347.227 316.441 347.227 316.65 C 347.227 316.747 347.158 317.011 347.227 316.943 C 348.025 316.144 348.443 314.635 348.898 313.724 C 349.028 313.466 349.037 312.917 349.191 312.763 C 349.198 312.756 349.233 313.405 349.233 313.515 C 349.233 313.897 349.183 314.844 349.442 315.103 C 349.883 315.545 350.005 316.461 350.403 316.859 C 350.691 317.147 351.118 317.574 351.406 317.862 C 351.589 318.045 352.035 317.989 352.201 318.155 C 352.637 318.591 353.314 317.698 353.413 317.402 C 353.64 316.721 353.686 314.941 353.371 314.309 C 353.351 314.269 353.177 313.431 353.204 313.431 C 353.319 313.431 353.386 313.794 353.496 313.849 C 353.702 313.952 354.025 313.419 354.082 313.306 C 354.556 312.357 354.677 310.913 355.461 310.129 C 355.485 310.105 355.51 311.453 355.544 311.592 C 355.762 312.462 355.921 314.016 356.506 314.602 C 356.667 314.763 357.112 314.727 357.384 314.727 C 358.479 314.727 358.807 313.346 359.39 312.763 C 359.588 312.564 359.611 312.261 359.892 312.261 C 360.34 312.34 359.301 314.123 359.784 314.607 C 360.09 314.912 360.461 315.226 360.907 315.449 C 361.619 315.805 362.641 315.883 363.433 316.081 C 364.27 316.29 365.557 316.651 366.24 316.993 C 366.523 317.134 367.118 316.984 367.433 317.063 C 368.666 317.371 370.18 317.203 371.502 317.203 C 372.742 317.203 373.982 317.203 375.221 317.203 C 375.642 317.203 376.063 317.203 376.484 317.203 C 376.695 317.203 377.301 317.104 377.116 317.203 C 377.029 317.25 376.741 317.314 376.84 317.314 C 377.212 317.314 377.579 317.253 377.87 317.253 C 378.571 317.253 379.775 316.577 379.325 315.677 C 378.815 314.657 378.181 312.993 378.779 311.798 C 378.991 311.374 378.518 310.18 378.84 309.858 C 378.881 309.817 379.172 310.34 379.203 310.404 C 379.436 310.869 379.697 311.686 380.052 312.04 C 381.571 313.559 380.892 316.768 383.81 316.768 C 384.053 316.951 384.557 316.843 384.834 316.923 C 386.074 317.277 388.663 317.815 389.886 317.203 C 390.288 317.003 390.91 317.372 391.22 317.063 C 391.447 316.836 393.395 316.825 393.395 316.502 C 393.596 316.353 393.059 317.244 392.863 317.638 C 391.997 319.37 391.03 322.161 389.561 323.63 C 388.982 324.209 388.938 325.965 388.338 326.565 C 387.349 327.554 386.183 329.774 385.403 331.334 C 384.275 333.589 381.914 336.902 380.389 338.427 C 379.198 339.618 378.872 341.901 377.943 342.829 C 376.6 344.172 375.059 345.786 374.275 347.354 C 373.068 349.768 371.126 352.633 369.139 353.958 C 368.002 354.715 367.368 356.871 366.204 357.259 C 365.635 357.449 364.512 359.308 364.247 359.705 C 363.198 361.279 360.245 364.824 358.255 365.819 C 357.202 366.346 356.617 367.792 355.564 368.143 C 353.855 368.713 353.232 370.758 352.018 371.567 C 350.347 372.681 349.591 374.116 348.105 375.603 C 347.289 376.419 345.436 377.049 344.681 377.804 C 343.98 378.505 342.966 379.34 341.916 379.432 Z" style="fill:rgb(190,176,156); stroke:rgb(165,137,98);" />
    <!-- Animals group (kept paths, removed Boxy attributes) -->
    <g>
      <path d="M 277.371 307.949 C 278.632 306.54 280.125 306.059 281.849 306.507 C 282.241 306.609 282.573 306.841 282.845 307.203 C 283.509 308.087 283.774 308.933 283.641 309.741 C 283.507 310.553 283.043 311.233 282.247 311.781 C 281.242 312.473 281.093 313.683 281.8 315.413 C 282.239 316.488 283.052 317.317 284.238 317.901 C 285.22 318.384 285.899 318.65 286.278 318.697 C 286.662 318.745 286.861 318.413 286.875 317.702 C 286.889 316.984 286.972 316.271 287.124 315.562 C 287.366 314.434 287.515 313.289 287.571 312.129 C 287.646 310.581 287.795 309.039 288.019 307.502 C 288.499 304.206 287.637 300.988 285.432 297.849 C 283.031 294.432 282.7 290.003 284.437 284.564 C 284.735 283.631 285.199 282.769 285.83 281.977 C 286.493 281.144 286.162 280.73 284.835 280.733 C 282.445 280.738 280.438 279.441 278.814 276.84 L 279.71 275.048 L 281.501 270.521 L 285.73 262.759 C 285.664 262.394 285.863 261.896 286.327 261.266 C 286.713 260.742 287.327 260.958 288.168 261.913 L 292 265.097 L 295.731 268.182 L 298.219 271.516 C 299.562 273.158 300.242 275.198 300.259 277.636 C 300.272 279.43 302.726 282.017 307.623 285.398 C 310.383 287.304 312.722 289.709 314.638 292.612 C 317.116 296.367 317.979 300.783 317.226 305.86 C 316.443 311.136 314.868 316.232 312.499 321.147 C 311.99 322.203 309.386 323.447 304.687 324.879 C 301.048 325.988 297.25 326.203 293.293 325.526 C 292.324 325.36 291.345 325.261 290.358 325.227 C 287.637 325.133 284.967 324.603 282.347 323.635 C 279.74 322.672 277.662 320.828 276.112 318.102 C 275.494 317.016 275.035 315.853 274.735 314.615 C 274.558 313.883 274.634 313.133 274.965 312.366 C 275.24 311.73 275.499 311.087 275.745 310.439 C 276.103 309.495 276.645 308.665 277.371 307.949 Z" style="stroke:rgb(147,137,130); fill:rgb(111,85,60);" />
      <g>
        <path d="M 204.439 316.72 L 205.201 317.736 C 205.464 318.009 205.747 318.281 206.048 318.554 C 206.84 319.273 207.772 319.8 208.842 320.134 C 209.427 320.317 210.01 320.505 210.591 320.699 C 210.957 320.821 211.277 321.038 211.551 321.348 C 211.733 321.553 211.873 321.788 211.974 322.053 C 212.052 322.256 212.051 322.492 211.974 322.759 C 211.884 323.072 211.714 323.429 211.466 323.831 C 211.255 324.174 210.935 324.418 210.506 324.565 C 210.128 324.695 209.818 324.619 209.575 324.339 C 209.372 324.105 209.372 323.794 209.575 323.408 C 209.658 323.25 209.658 323.071 209.575 322.872 C 209.466 322.611 209.184 322.63 208.729 322.928 C 208.567 323.034 208.426 323.166 208.305 323.323 C 208.19 323.472 208.04 323.585 207.854 323.662 C 207.68 323.734 207.492 323.734 207.289 323.662 C 207.063 323.582 206.903 323.403 206.81 323.126 C 206.738 322.91 206.625 322.713 206.471 322.533 C 206.142 322.148 205.878 321.715 205.681 321.235 C 205.535 320.88 205.31 320.569 205.004 320.304 C 204.771 320.102 204.611 319.839 204.524 319.514 C 204.419 319.123 204.212 318.775 203.903 318.469 C 203.683 318.251 203.58 317.96 203.593 317.595 C 203.602 317.341 203.593 317.068 203.565 316.776 C 203.551 316.628 203.673 316.544 203.931 316.522 C 204.054 316.511 204.177 316.493 204.298 316.466 C 204.39 316.446 204.437 316.53 204.439 316.72 Z" style="stroke:rgb(164,151,138); fill:rgb(164,151,138);" />
        <path d="M 226.975 320.434 L 231.792 317.276 C 232.121 318.02 232.451 318.786 232.78 319.573 C 233.02 320.146 233.36 320.699 233.801 321.232 C 234.033 321.512 234.15 321.874 234.152 322.316 C 234.155 322.874 234.559 323.288 235.364 323.56 C 235.954 323.759 236.507 324.047 237.023 324.422 C 237.26 324.594 237.462 324.807 237.629 325.06 C 237.768 325.27 237.63 325.536 237.214 325.857 C 236.843 326.143 236.482 326.441 236.13 326.75 C 235.749 327.085 235.281 327.319 234.726 327.452 C 234.186 327.581 233.538 327.592 232.78 327.484 C 232.243 327.408 231.712 327.301 231.185 327.165 C 230.576 327.008 230.161 326.487 229.941 325.602 C 229.86 325.275 228.882 323.574 227.007 320.498 C 226.853 320.246 227.087 320.065 227.709 319.956" style="stroke:rgb(164,151,138); fill:rgb(164,151,138);" />
        <path d="M 241.106 318.871 L 244.328 315.841 C 246.763 319.169 248.73 321.242 250.229 322.061 C 250.738 322.339 250.344 322.764 249.048 323.337 C 248.551 323.557 248.052 323.769 247.549 323.975 C 246.934 324.227 246.275 324.078 245.572 323.528 C 243.855 322.184 242.366 320.632 241.106 318.871 Z" style="stroke:rgb(164,151,138); fill:rgb(164,151,138);" />
        <path d="M 235.126 319.032 L 233.189 316.046 L 236.418 314.068 L 238.92 311.405 L 241.261 308.055 L 242.794 305.028 L 243.601 302.203 L 243.399 298.813 C 244.677 296.795 246.009 295.585 247.395 295.181 C 250.93 294.151 253.284 294.42 254.457 295.988 C 254.832 296.489 255.101 297.054 255.265 297.683 C 255.385 298.145 254.928 298.279 253.892 298.087 C 253.58 298.029 253.324 297.841 253.126 297.522 C 253.005 297.327 252.789 297.407 252.48 297.764 C 252.318 297.952 252.129 298.113 251.915 298.248 C 251.668 298.404 251.668 298.673 251.915 299.055 C 252.035 299.24 252.21 299.375 252.439 299.459 C 252.619 299.525 252.834 299.552 253.085 299.54 C 253.629 299.514 253.817 300.025 253.65 301.073 C 253.594 301.422 253.325 301.65 252.843 301.759 C 252.655 301.801 252.48 301.882 252.318 302.001 C 251.893 302.313 251.369 302.367 250.744 302.163 C 250.417 302.056 250.122 302.231 249.857 302.688 C 249.541 303.233 249.191 303.758 248.807 304.261 C 246.628 307.115 244.638 310.128 242.834 313.302 C 241.992 314.784 240.848 316.048 239.404 317.095 C 238.136 318.015 236.71 318.66 235.126 319.032 Z" style="stroke:rgb(164,151,138); fill:rgb(164,151,138);" />
      </g>

	  <!-- TurtleShell -->
      <path d="M 202.788 314.174 C 220.231 325.408 233.691 321.381 243.165 302.093 C 243.613 301.181 243.21 300.249 241.957 299.295 C 238.23 296.457 234.097 294.253 229.557 292.682 C 227.134 291.844 223.446 291.801 218.493 292.555 C 217.45 292.714 216.475 293.116 215.568 293.763 C 204.63 301.565 200.328 308.369 202.66 314.174" style="stroke:rgb(96,65,45); fill:rgb(107,81,55);" />
      <!-- Dog -->
	  <path d="M 182.187 275.885 L 181.593 280.241 L 181.098 285.192 L 181.296 297.667 L 182.386 312.518 L 183.97 314.994 C 184.894 316.413 186.082 316.974 187.534 316.677 C 187.852 316.612 188.908 318.097 190.702 321.132 C 191.19 321.958 188.715 322.387 183.277 322.419 C 180.967 322.433 179.316 320.816 178.326 317.568 C 177.641 315.32 177.212 313.01 177.039 310.637 C 177.002 310.123 176.605 309.793 175.851 309.647 C 175.429 309.565 175.396 309.136 175.752 308.36 C 175.879 308.083 176.077 307.852 176.346 307.667 C 176.677 307.439 176.611 307.043 176.148 306.479 C 176.148 306.479 175.356 300.802 173.772 289.449 C 173.704 288.963 173.341 289.293 172.683 290.439 C 172.472 290.807 173.198 296.12 174.861 306.38 C 175.142 308.114 175.307 309.863 175.356 311.627 C 175.406 313.411 176 315.094 177.138 316.677 C 178.95 319.198 181.095 321.442 183.574 323.409 C 184.057 323.792 183.892 324.386 183.079 325.191 C 182.299 325.963 181.243 326.26 179.91 326.083 C 176.896 325.683 174.19 324.296 171.792 321.924 C 170.97 321.111 170.937 319.956 171.693 318.459 C 171.961 317.929 171.961 317.335 171.693 316.677 C 171.348 315.829 170.952 315.004 170.504 314.201 C 169.989 313.278 169.164 312.619 168.029 312.221 C 167.403 312.002 167.469 311.342 168.227 310.241 C 168.761 309.465 167.738 303.558 165.158 292.518 C 165 291.842 163.581 292.733 160.901 295.192 C 160.511 295.55 160.478 296.078 160.802 296.776 C 161.916 299.175 161.751 301.816 160.306 304.697 C 159.167 306.969 157.154 308.52 154.267 309.35 C 152.741 309.789 151.586 310.878 150.802 312.617 C 150.629 313 150.332 313.297 149.91 313.508 C 149.449 313.739 149.779 314.135 150.901 314.696 C 151.974 315.232 153.162 315.398 154.465 315.192 C 157.596 314.697 160.764 314.796 163.97 315.489 C 165.042 315.721 165.834 316.48 166.346 317.766 C 166.543 318.261 166.345 318.756 165.752 319.251 C 165.021 319.861 164.097 320.092 162.98 319.944 C 160.035 319.554 157.065 319.521 154.069 319.845 C 153.301 319.928 153.565 320.654 154.861 322.023 C 155.247 322.431 154.884 322.86 153.772 323.31 C 153.133 323.569 152.473 323.767 151.792 323.904 C 150.391 324.186 148.972 324.021 147.534 323.409 C 146.516 322.976 145.46 322.646 144.366 322.419 C 142.734 322.08 141.018 321.849 139.218 321.726 C 136.616 321.548 134.008 321.482 131.396 321.528 C 130.444 321.545 129.916 320.753 129.812 319.152 C 129.767 318.454 129.536 317.794 129.119 317.172 C 128.802 316.699 128.24 316.798 127.435 317.469 C 126.088 318.592 124.438 319.186 122.485 319.251 C 117.402 319.42 112.32 319.519 107.238 319.548 C 106.129 319.554 105.699 318.531 105.95 316.479 C 105.95 316.479 111.033 316.083 121.198 315.291 C 123.115 315.142 124.6 313.92 125.653 311.627 C 125.937 311.009 125.772 310.349 125.158 309.647 C 122.244 306.316 123.828 298.626 129.911 286.578 C 132.99 280.479 136.423 274.571 140.208 268.855 C 145.517 260.837 151.193 253.008 157.237 245.365 C 157.697 244.783 157.961 244.09 158.029 243.286 C 158.182 241.476 159.931 239.364 163.277 236.95 C 163.832 236.55 164.063 235.906 163.97 235.019 C 163.599 231.478 167.262 224.514 174.96 214.128 C 175.511 213.385 175.544 212.461 175.059 211.356 C 175.059 211.356 175.389 210.168 176.049 207.791 C 176.988 204.411 177.714 200.979 178.227 197.494 C 178.876 193.083 180.791 197.11 183.97 209.574 C 184.949 213.414 186.929 209.981 189.91 199.277 L 189.217 210.465 L 193.376 212.841 C 194.102 213.468 194.894 214.095 195.752 214.722 C 196.506 215.273 197.001 216.065 197.237 217.098 C 197.396 217.793 197.231 218.486 196.742 219.177 C 196.488 219.537 196.587 219.966 197.039 220.465 C 197.446 220.914 197.974 221.211 198.623 221.356 L 205.653 226.9 L 204.069 229.771 L 203.573 231.554 L 202.979 233.336 L 200.702 235.687 L 197.237 236.578 L 191.593 236.578 L 187.93 234.103 L 186.148 237.073 L 184.762 240.737 L 184.465 244.895 L 186.148 249.647 C 186.577 251.223 187.072 252.799 187.633 254.375 C 188.117 255.734 188.315 257.351 188.227 259.227 C 188.01 263.857 186.03 269.401 182.286 275.86" style="stroke:rgb(112,88,63); fill:rgb(112,88,62);" />
	  <!-- DogPatch -->
      <path d="M 181.218 263.051 L 186.473 258.621 L 185.648 263.051 L 184.221 266.955 L 182.72 271.91 L 180.843 271.309 C 181.043 270.158 181.243 268.957 181.443 267.705 C 181.684 266.197 181.609 264.646 181.218 263.051 Z" style="fill:rgb(165,137,97); stroke:rgb(165,137,98);" />
	  <!-- Cow -->
	  <path d="M 320.785 231.778 C 319.954 227.893 318.293 220.122 317.255 216.385 C 316.217 212.648 315.801 212.944 314.526 213.152 C 313.251 213.36 311.115 213.478 309.158 213.152 C 307.2 212.826 305.421 212.055 303.878 211.106 C 302.336 210.157 301.031 209.029 299.904 207.724 C 298.777 206.419 297.827 204.936 297.62 203.868 C 297.412 202.801 297.946 202.148 298.895 201.407 C 299.844 200.665 301.209 199.835 302.721 199.331 C 304.234 198.826 305.895 198.649 307.17 198.856 C 308.446 199.064 309.335 199.657 310.344 200.221 C 311.352 200.784 312.48 201.318 313.37 201.644 C 314.259 201.971 314.912 202.089 315.594 202.03 C 316.276 201.971 316.988 201.733 317.7 201.259 C 318.412 200.784 319.123 200.072 319.895 199.271 C 320.666 198.47 321.496 197.581 322.327 196.691 C 323.157 195.801 323.988 194.912 325.085 194.17 C 326.182 193.429 327.547 192.835 328.733 192.539 C 329.92 192.242 330.928 192.242 331.818 192.242 C 332.708 192.242 333.479 192.242 334.428 192.331 C 335.377 192.42 336.504 192.598 337.542 192.954 C 338.58 193.31 339.53 193.843 340.449 194.437 C 341.369 195.03 342.258 195.682 343.178 196.394 C 344.097 197.106 345.047 197.878 345.848 198.59 C 346.648 199.301 347.301 199.954 347.864 200.547 C 348.428 201.14 348.902 201.674 349.585 202 C 350.267 202.327 351.156 202.445 351.957 202.178 C 352.758 201.911 353.47 201.259 354.449 200.725 C 355.428 200.191 356.673 199.775 357.889 199.449 C 359.105 199.123 360.292 198.886 361.389 198.916 C 362.486 198.945 363.495 199.242 364.444 199.627 C 365.393 200.013 366.283 200.487 367.114 201.081 C 367.944 201.674 368.715 202.386 369.189 202.89 C 369.664 203.394 369.842 203.691 369.812 204.195 C 369.783 204.699 369.545 205.411 369.13 206.093 C 368.715 206.775 368.122 207.428 367.47 208.021 C 366.817 208.614 366.105 209.148 365.186 209.623 C 364.266 210.097 363.139 210.513 362.19 210.78 C 361.241 211.047 360.469 211.165 359.936 211.551 C 359.402 211.936 359.105 212.589 359.105 213.212 C 359.105 213.834 359.402 214.428 359.817 214.932 C 360.232 215.436 360.766 215.852 362.16 216.623 C 363.554 217.394 365.809 218.521 367.826 219.292 C 369.842 220.063 371.622 220.479 373.253 220.686 C 374.884 220.894 376.367 220.894 377.732 220.627 C 379.096 220.36 380.342 219.826 381.647 219.47 C 382.952 219.114 384.317 218.936 385.444 219.055 C 386.571 219.173 387.46 219.589 388.083 220.152 C 388.706 220.716 389.062 221.427 389.596 222.169 C 390.13 222.91 390.841 223.682 391.524 224.364 C 392.206 225.046 392.858 225.639 393.541 226.351 C 394.223 227.063 394.935 227.893 395.617 228.783 C 396.299 229.673 396.952 230.622 397.456 231.69 C 397.96 232.757 398.316 233.944 398.553 235.249 C 398.791 236.554 398.909 237.978 398.969 239.164 C 399.028 240.351 399.028 241.3 399.028 242.368 C 399.028 243.435 399.028 244.622 398.88 245.66 C 398.731 246.698 398.435 247.588 398.346 248.567 C 398.257 249.546 398.375 250.613 398.464 251.651 C 398.553 252.689 398.613 253.698 398.613 254.647 C 398.613 255.596 398.553 256.486 398.494 257.376 C 398.435 258.266 398.375 259.155 398.227 260.015 C 398.079 260.875 397.841 261.706 397.515 262.744 C 397.189 263.782 396.773 265.028 396.447 266.096 C 396.121 267.164 395.884 268.053 395.884 268.884 C 395.884 269.714 396.121 270.485 396.447 271.464 C 396.773 272.443 397.189 273.629 397.545 274.638 C 397.901 275.646 398.197 276.477 398.494 277.544 C 398.791 278.612 399.087 279.917 399.384 281.044 C 399.681 282.171 399.977 283.121 400.185 284.159 C 400.392 285.197 400.511 286.324 400.362 287.421 C 400.214 288.519 399.799 289.586 399.325 290.713 C 398.85 291.84 398.316 293.027 397.901 293.798 C 397.485 294.569 397.189 294.925 396.803 294.747 C 396.418 294.569 395.943 293.858 395.736 292.968 C 395.528 292.078 395.588 291.01 395.677 289.942 C 395.765 288.874 395.884 287.807 396.002 286.798 C 396.121 285.79 396.239 284.841 396.328 283.862 C 396.417 282.883 396.477 281.875 396.477 280.659 C 396.477 279.442 396.417 278.019 396.328 277.01 C 396.239 276.002 396.121 275.409 395.943 274.845 C 395.765 274.282 395.528 273.748 395.35 273.896 C 395.172 274.045 395.054 274.875 394.816 275.736 C 394.579 276.596 394.223 277.485 393.926 278.405 C 393.63 279.324 393.392 280.273 393.214 281.282 C 393.036 282.29 392.918 283.358 392.68 284.485 C 392.443 285.612 392.087 286.799 391.731 288.282 C 391.375 289.765 391.02 291.544 390.753 293.265 C 390.486 294.985 390.308 296.646 390.13 298.159 C 389.952 299.671 389.774 301.036 389.685 302.163 C 389.596 303.29 389.596 304.179 389.507 305.188 C 389.418 306.196 389.24 307.323 389.329 308.628 C 389.418 309.933 389.774 311.416 389.863 312.899 C 389.952 314.382 389.774 315.865 389.388 316.963 C 389.003 318.06 388.409 318.772 387.46 319.098 C 386.511 319.425 385.206 319.365 384.672 318.624 C 384.138 317.882 384.376 316.459 384.791 314.62 C 385.206 312.781 385.8 310.526 386.185 308.687 C 386.571 306.848 386.748 305.425 386.748 303.942 C 386.748 302.459 386.571 300.916 386.452 299.552 C 386.334 298.188 386.274 297.001 386.037 295.4 C 385.8 293.798 385.384 291.781 385.177 290.09 C 384.969 288.4 384.969 287.035 385.028 285.73 C 385.088 284.425 385.206 283.18 385.266 281.964 C 385.325 280.748 385.325 279.561 385.325 278.583 C 385.325 277.604 385.325 276.832 385.117 276.832 C 384.91 276.832 384.494 277.604 383.96 278.405 C 383.427 279.205 382.774 280.036 382.092 280.748 C 381.41 281.459 380.698 282.053 380.372 282.676 C 380.045 283.299 380.105 283.951 380.312 284.545 C 380.52 285.138 380.876 285.671 381.054 286.235 C 381.232 286.798 381.232 287.392 381.143 288.163 C 381.054 288.934 380.876 289.883 380.728 290.862 C 380.579 291.84 380.461 292.849 380.312 293.887 C 380.164 294.925 379.986 295.993 379.808 296.972 C 379.63 297.951 379.452 298.84 379.244 300.056 C 379.037 301.272 378.799 302.815 378.681 304.001 C 378.562 305.188 378.562 306.018 378.562 307.027 C 378.562 308.035 378.562 309.222 378.414 310.289 C 378.266 311.357 377.969 312.306 377.732 313.225 C 377.495 314.145 377.317 315.035 377.139 315.806 C 376.961 316.577 376.783 317.23 376.368 317.585 C 375.952 317.941 375.3 318.001 374.677 318.06 C 374.054 318.119 373.461 318.179 372.69 318.179 C 371.919 318.179 370.969 318.119 370.169 317.941 C 369.368 317.763 368.715 317.467 368.686 316.814 C 368.656 316.162 369.249 315.153 370.05 313.759 C 370.851 312.365 371.859 310.586 372.452 309.192 C 373.046 307.798 373.223 306.789 373.431 305.662 C 373.638 304.535 373.876 303.29 374.083 302.014 C 374.291 300.739 374.469 299.434 374.558 298.337 C 374.647 297.239 374.647 296.349 374.499 295.341 C 374.35 294.332 374.054 293.205 373.757 292.167 C 373.461 291.129 373.164 290.18 372.809 289.231 C 372.453 288.282 372.037 287.332 371.741 286.65 C 371.444 285.968 371.266 285.552 370.732 285.374 C 370.198 285.196 369.309 285.256 368.775 285.701 C 368.241 286.146 368.063 286.976 367.885 287.807 C 367.707 288.637 367.529 289.468 367.173 290.743 C 366.817 292.018 366.283 293.739 365.838 295.37 C 365.393 297.001 365.037 298.544 364.652 300.027 C 364.266 301.51 363.851 302.933 363.673 304.446 C 363.495 305.959 363.555 307.56 363.792 308.836 C 364.029 310.111 364.444 311.06 364.8 312.069 C 365.156 313.077 365.452 314.145 365.749 315.124 C 366.046 316.103 366.342 316.992 366.55 317.941 C 366.758 318.891 366.876 319.899 366.936 320.789 C 366.995 321.679 366.995 322.45 366.372 322.746 C 365.749 323.043 364.504 322.865 363.525 322.776 C 362.546 322.687 361.834 322.687 360.974 322.746 C 360.114 322.806 359.105 322.924 358.572 322.628 C 358.038 322.331 357.978 321.62 358.156 320.671 C 358.334 319.721 358.75 318.535 358.928 317.259 C 359.106 315.984 359.046 314.619 359.106 313.463 C 359.165 312.306 359.343 311.357 359.491 310.408 C 359.639 309.459 359.758 308.509 359.817 307.649 C 359.876 306.789 359.876 306.018 359.698 305.336 C 359.52 304.654 359.165 304.06 358.839 303.408 C 358.512 302.755 358.216 302.044 357.978 301.332 C 357.741 300.62 357.563 299.908 357.444 299.048 C 357.326 298.188 357.266 297.179 357.237 296.319 C 357.207 295.459 357.207 294.747 357.415 293.946 C 357.622 293.145 358.038 292.256 358.305 291.218 C 358.572 290.18 358.69 288.993 358.809 287.896 C 358.928 286.798 359.046 285.79 359.106 284.959 C 359.165 284.129 359.165 283.476 359.017 282.943 C 358.868 282.409 358.572 281.993 358.038 281.875 C 357.504 281.756 356.732 281.934 356.08 282.29 C 355.427 282.646 354.894 283.18 354.36 283.803 C 353.826 284.426 353.292 285.137 352.758 285.79 C 352.224 286.442 351.69 287.036 351.156 287.599 C 350.622 288.163 350.089 288.697 349.436 288.727 C 348.784 288.756 348.012 288.282 347.478 287.955 C 346.944 287.629 346.648 287.451 346.233 287.154 C 345.817 286.858 345.284 286.442 344.78 285.998 C 344.275 285.553 343.801 285.078 343.474 285.197 C 343.148 285.316 342.97 286.027 343.029 286.739 C 343.089 287.451 343.385 288.163 343.593 288.697 C 343.801 289.231 343.919 289.586 344.127 290.091 C 344.335 290.595 344.631 291.247 344.958 291.9 C 345.284 292.552 345.64 293.205 345.907 293.828 C 346.174 294.45 346.351 295.044 346.44 295.756 C 346.529 296.468 346.529 297.298 346.44 298.04 C 346.351 298.781 346.174 299.434 345.996 300.205 C 345.818 300.976 345.64 301.866 345.521 302.756 C 345.403 303.646 345.343 304.535 345.254 305.514 C 345.165 306.493 345.047 307.56 344.987 308.45 C 344.928 309.34 344.928 310.052 345.136 310.764 C 345.343 311.476 345.758 312.187 346.114 312.87 C 346.47 313.552 346.766 314.204 346.885 315.005 C 347.004 315.806 346.944 316.755 346.737 317.615 C 346.529 318.475 346.174 319.247 345.818 319.929 C 345.462 320.611 345.106 321.204 344.661 321.738 C 344.216 322.272 343.682 322.746 343.148 323.102 C 342.614 323.458 342.08 323.696 341.309 323.814 C 340.538 323.933 339.529 323.933 338.788 323.933 C 338.046 323.933 337.572 323.933 337.186 323.607 C 336.801 323.28 336.504 322.628 336.564 321.946 C 336.623 321.263 337.038 320.552 337.631 319.81 C 338.224 319.069 338.996 318.297 339.47 317.645 C 339.945 316.992 340.123 316.459 340.242 315.628 C 340.36 314.798 340.42 313.67 340.538 312.662 C 340.657 311.653 340.835 310.764 340.954 309.993 C 341.072 309.221 341.132 308.569 341.043 307.768 C 340.954 306.967 340.716 306.018 340.479 305.188 C 340.242 304.357 340.004 303.645 339.708 302.785 C 339.411 301.925 339.055 300.916 338.788 300.056 C 338.521 299.196 338.343 298.485 338.106 297.773 C 337.868 297.061 337.572 296.349 337.364 295.518 C 337.157 294.688 337.038 293.739 336.682 292.79 C 336.327 291.841 335.733 290.891 335.199 289.972 C 334.665 289.052 334.191 288.163 333.805 287.392 C 333.419 286.62 333.123 285.968 332.856 284.959 C 332.589 283.951 332.352 282.586 331.878 281.37 C 331.403 280.154 330.691 279.087 330.098 278.108 C 329.504 277.129 329.03 276.24 328.585 275.053 C 328.14 273.867 327.725 272.384 327.458 271.138 C 327.191 269.892 327.073 268.884 326.835 268.024 C 326.598 267.163 326.242 266.452 325.916 265.592 C 325.589 264.731 325.293 263.723 324.937 262.803 C 324.581 261.884 324.165 261.053 323.869 260.015 C 323.572 258.977 323.395 257.732 323.306 256.456 C 323.217 255.181 323.217 253.876 323.217 252.719 C 323.217 251.562 323.217 250.554 323.247 249.605 C 323.276 248.655 323.335 247.766 323.127 246.906 C 322.92 246.045 322.445 245.215 322.03 244.384 C 321.615 243.554 321.259 242.723 321.051 241.745 C 320.844 240.766 320.784 239.639 320.903 238.601 C 321.022 237.563 321.318 236.613 321.467 236.139 C 321.615 235.664 321.615 235.664 321.615 235.664 C 321.615 235.664 321.615 235.664 320.785 231.778" style="stroke: rgb(107,81,55); fill:rgb(110,86,61);" />
	  <!-- CowPatch1 -->
      <path d="M 323.891 202.173 C 326.738 203.668 329.491 208.342 332.148 216.195 C 334.258 222.432 337.604 216.761 342.184 199.183 C 342.839 196.667 340.514 195.505 335.209 195.696 C 334.277 195.73 333.351 195.848 332.433 196.051 C 331.719 196.209 331.126 196.636 330.653 197.333 C 330.227 197.961 329.468 197.961 328.376 197.333 C 327.765 196.982 327.267 197.48 326.881 198.827 C 326.743 199.308 326.482 199.736 326.098 200.109 C 325.4 200.787 324.664 201.475 323.891 202.173 Z" style="stroke:rgb(170,143,103); fill:rgb(169,143,103);" />
	  <!-- CowPatch2 -->
      <path d="M 329.253 270.18 L 336.187 278.407 L 349.349 288.631 L 354.991 283.108 C 355.676 282.794 356.362 282.442 357.047 282.05 C 357.418 281.837 357.83 281.955 358.281 282.403 C 359.704 283.817 360.586 282.015 360.926 276.996 C 361.131 273.976 360.484 271.018 358.986 268.123 C 357.849 265.926 358.828 263.654 361.924 261.307 C 362.991 260.498 361.737 260.028 358.164 259.897 C 356.838 259.848 355.702 259.163 354.756 257.84 C 353.514 256.103 351.536 256.906 348.821 260.249 C 347.413 261.982 347.022 261.806 342.18 261.131 C 341.616 261.052 341.655 261.62 342.298 262.835 C 343.183 264.507 342.497 266.27 340.241 268.123 C 339.604 268.646 338.781 268.588 337.773 267.947 C 336.441 267.1 335.814 265.65 335.893 263.599 C 336.002 260.775 334.023 258.758 329.958 257.546 C 329.424 257.387 329.129 261.559 329.311 262.776 C 329.853 266.401 329.912 266.44 329.253 270.18 Z" style="stroke:rgb(165,137,98); fill:rgb(165,136,98);" />
	  <!-- CowPatch3 -->
      <path d="M 323.617 246.736 L 321.883 244.359 L 320.855 242.754 L 320.791 239.735 L 321.754 237.166 L 323.103 234.597 L 326.636 232.927 L 331.132 232.734 L 334.728 232.927 C 335.734 233.376 336.784 233.869 337.876 234.404 C 338.866 234.889 339.701 235.639 340.381 236.652 C 340.932 237.473 341.125 238.479 340.959 239.671 C 340.832 240.584 340.875 241.547 341.087 242.561 C 341.214 243.17 341.236 243.834 341.151 244.552 C 341.031 245.562 340.304 246.333 338.968 246.864 C 337.538 247.432 336.232 248.246 335.05 249.305 C 332.616 251.486 325.379 249.452 325.287 248.406 L 323.617 246.736 Z" style="stroke:rgb(211,191,147); fill:rgb(210,191,146);" />
	  <!-- CowPatch4 -->
      <path d="M 330.746 246.286 L 327.599 245.965 L 325.158 245.323 L 324.837 244.231 L 325.544 243.267 L 325.929 241.469 L 324.645 239.478 L 323.617 238.193 L 324.195 235.945 L 325.415 237.423 L 326.764 238.322 L 328.691 238.707 L 331.581 238.579 L 334.022 238.258 L 335.435 237.679 C 335.799 237.572 336.206 237.465 336.655 237.358 C 336.898 237.3 337.112 237.429 337.298 237.744 C 337.466 238.029 337.423 238.35 337.169 238.707 C 336.931 239.042 336.61 239.299 336.206 239.478 C 335.843 239.639 335.543 240.024 335.307 240.634 C 335.145 241.052 335.017 241.523 334.921 242.047 C 334.863 242.365 334.841 242.772 334.857 243.267 C 334.865 243.515 335.036 243.751 335.371 243.974 C 335.599 244.126 335.749 244.383 335.82 244.745 C 335.895 245.126 335.745 245.511 335.371 245.901 C 334.971 246.318 334.393 246.318 333.637 245.901 L 330.746 246.286 Z" style="stroke:rgb(111,86,62); fill:rgb(109,86,61);" />
    </g>
  </g>
</svg>